<?xml version="1.0" standalone="no"?>
<!DOCTYPE svg PUBLIC "-//W3C//DTD SVG 20010904//EN"
 "http://www.w3.org/TR/2001/REC-SVG-20010904/DTD/svg10.dtd">
<svg version="1.0" xmlns="http://www.w3.org/2000/svg"
 width="512.000000pt" height="512.000000pt" viewBox="0 0 512.000000 512.000000"
 preserveAspectRatio="xMidYMid meet">
<metadata>
Created by potrace 1.11, written by Peter Selinger 2001-2013
</metadata>
<g transform="translate(0.000000,512.000000) scale(0.100000,-0.100000)"
fill="#000000" stroke="none">
<path d="M3686 5044 c-38 -8 -96 -29 -130 -46 -120 -60 -1399 -803 -1422 -827
-20 -20 -24 -34 -24 -87 0 -124 -51 -213 -148 -261 -85 -42 -157 -39 -244 10
-37 20 -78 37 -93 37 -18 0 -259 -134 -679 -377 -358 -207 -669 -389 -691
-404 -97 -65 -181 -173 -221 -285 l-29 -79 -3 -660 c-2 -641 -2 -661 17 -692
20 -32 67 -53 121 -53 37 -1 101 -33 138 -70 71 -71 95 -160 68 -254 -30 -103
-111 -168 -230 -187 -43 -7 -68 -17 -86 -35 -23 -23 -25 -31 -25 -127 1 -172
58 -304 183 -424 63 -61 184 -124 270 -142 37 -8 509 -11 1552 -11 l1500 0 30
28 c23 21 32 40 39 88 12 77 39 132 87 174 52 45 99 62 169 62 137 0 233 -88
256 -236 7 -48 16 -67 39 -89 l30 -27 225 0 c123 0 248 5 277 11 86 18 207 81
270 142 71 67 132 161 161 246 l22 66 3 1185 2 1185 -30 180 c-109 638 -352
1182 -745 1671 -170 213 -296 287 -505 299 -57 3 -108 0 -154 -11z m206 -195
c114 -25 179 -72 297 -219 300 -371 530 -834 645 -1295 20 -82 76 -367 76
-389 0 -3 -495 -6 -1099 -6 l-1099 0 5 20 c9 32 92 119 135 141 22 11 68 25
102 30 76 12 104 26 122 61 33 64 -11 137 -88 145 -54 6 -162 -19 -228 -52
-109 -55 -232 -206 -255 -312 l-7 -33 -373 0 c-402 0 -415 -1 -441 -51 -17
-34 -18 -60 -2 -94 24 -54 35 -55 442 -55 l374 0 7 -32 c14 -62 67 -152 128
-215 104 -108 238 -161 388 -150 203 14 388 160 443 351 l12 41 722 3 722 2 0
-1054 c0 -671 -4 -1073 -10 -1107 -28 -144 -132 -257 -272 -295 -34 -9 -106
-14 -203 -14 l-150 0 -18 49 c-26 73 -89 161 -151 209 -165 128 -397 128 -562
0 -62 -48 -125 -136 -151 -209 l-18 -49 -1430 0 c-1202 0 -1437 2 -1476 14
-136 41 -229 138 -264 272 -15 59 -11 73 23 74 31 0 140 66 187 113 178 178
176 468 -4 648 -58 58 -130 101 -189 114 l-33 7 4 591 c1 326 7 602 11 615 l8
22 360 0 360 0 29 29 c45 46 39 123 -14 153 -16 9 -99 14 -289 18 l-266 5 610
353 610 354 47 -20 c275 -119 578 51 634 354 l13 68 644 373 c355 206 661 381
680 390 88 39 168 50 252 32z m-632 -2117 c0 -19 -61 -101 -92 -125 -104 -80
-262 -78 -366 3 -27 22 -92 107 -92 122 0 4 124 8 275 8 151 0 275 -4 275 -8z"/>
<path d="M3740 4457 c-51 -15 -134 -72 -165 -113 -49 -64 -68 -122 -69 -206 0
-66 5 -85 33 -142 123 -250 469 -250 592 0 28 57 33 76 33 142 -1 84 -20 142
-69 206 -33 43 -116 98 -171 114 -50 14 -136 14 -184 -1z m164 -213 c80 -55
71 -176 -17 -217 -44 -21 -60 -21 -104 0 -68 32 -93 114 -53 177 37 61 117 80
174 40z"/>
<path d="M1301 2926 c-87 -48 -50 -186 49 -186 51 0 100 49 100 99 0 75 -83
124 -149 87z"/>
<path d="M986 2371 c-73 -30 -122 -68 -159 -125 -45 -68 -57 -106 -57 -182 0
-204 176 -353 379 -321 258 39 361 360 178 549 -84 86 -235 121 -341 79z m180
-208 c24 -15 54 -70 54 -98 0 -32 -33 -87 -64 -106 -61 -37 -138 -13 -169 54
-21 44 -21 60 -1 102 31 65 119 88 180 48z"/>
<path d="M3910 1856 c-250 -81 -328 -385 -146 -574 204 -214 570 -82 594 214
16 202 -145 376 -346 373 -37 -1 -83 -6 -102 -13z m179 -213 c45 -34 64 -69
64 -116 0 -139 -156 -196 -252 -93 -36 39 -41 119 -9 166 46 68 136 88 197 43z"/>
<path d="M2140 1519 c-282 -37 -456 -312 -375 -591 53 -184 237 -318 434 -318
298 1 520 280 446 563 -60 232 -273 378 -505 346z m175 -227 c85 -43 136 -126
136 -222 1 -230 -268 -341 -431 -178 -127 126 -74 350 96 414 52 19 148 12
199 -14z"/>
</g>
</svg>
